<mxfile host="app.diagrams.net" modified="2023-06-02T12:50:52.481Z" agent="Mozilla/5.0 (Windows NT 10.0; Win64; x64; rv:109.0) Gecko/20100101 Firefox/113.0" etag="x0w8gG_SY482CDlDmFPA" version="21.3.6" type="google">
  <diagram name="PÃ¡gina-1" id="_Kqp7WFeaTXi4p2O6TsE">
    <mxGraphModel grid="1" page="1" gridSize="10" guides="1" tooltips="1" connect="1" arrows="1" fold="1" pageScale="1" pageWidth="827" pageHeight="1169" math="0" shadow="0">
      <root>
        <mxCell id="0" />
        <mxCell id="1" parent="0" />
        <mxCell id="o7QO5zbr8Gy0IS8eqbob-2" value="" style="endArrow=none;html=1;rounded=0;entryX=0;entryY=0.5;entryDx=0;entryDy=0;" edge="1" parent="1">
          <mxGeometry width="50" height="50" relative="1" as="geometry">
            <mxPoint x="-80" y="220" as="sourcePoint" />
            <mxPoint x="170" y="220" as="targetPoint" />
          </mxGeometry>
        </mxCell>
        <mxCell id="o7QO5zbr8Gy0IS8eqbob-3" value="elegirOfertaLaboral(numero: String) " style="text;html=1;strokeColor=none;fillColor=none;align=center;verticalAlign=middle;whiteSpace=wrap;rounded=0;" vertex="1" parent="1">
          <mxGeometry x="-160" y="198" width="420" height="30" as="geometry" />
        </mxCell>
        <mxCell id="o7QO5zbr8Gy0IS8eqbob-4" value="" style="endArrow=classic;html=1;rounded=0;" edge="1" parent="1">
          <mxGeometry width="50" height="50" relative="1" as="geometry">
            <mxPoint x="20" y="199" as="sourcePoint" />
            <mxPoint x="80" y="199" as="targetPoint" />
          </mxGeometry>
        </mxCell>
        <mxCell id="o7QO5zbr8Gy0IS8eqbob-5" value="" style="rounded=0;whiteSpace=wrap;html=1;" vertex="1" parent="1">
          <mxGeometry x="550" y="208" width="110" height="50" as="geometry" />
        </mxCell>
        <mxCell id="o7QO5zbr8Gy0IS8eqbob-6" value=":&lt;u&gt;Oferta Laboral&lt;/u&gt;" style="rounded=0;whiteSpace=wrap;html=1;" vertex="1" parent="1">
          <mxGeometry x="540" y="195" width="110" height="50" as="geometry" />
        </mxCell>
        <mxCell id="o7QO5zbr8Gy0IS8eqbob-7" value=":&lt;u&gt;Sistema&lt;/u&gt;" style="rounded=0;whiteSpace=wrap;html=1;" vertex="1" parent="1">
          <mxGeometry x="170" y="195" width="110" height="50" as="geometry" />
        </mxCell>
        <mxCell id="o7QO5zbr8Gy0IS8eqbob-8" value="" style="endArrow=none;html=1;rounded=0;entryX=0;entryY=0.5;entryDx=0;entryDy=0;exitX=1;exitY=0.5;exitDx=0;exitDy=0;" edge="1" parent="1" source="o7QO5zbr8Gy0IS8eqbob-7" target="o7QO5zbr8Gy0IS8eqbob-6">
          <mxGeometry width="50" height="50" relative="1" as="geometry">
            <mxPoint x="310" y="228" as="sourcePoint" />
            <mxPoint x="360" y="178" as="targetPoint" />
          </mxGeometry>
        </mxCell>
        <mxCell id="o7QO5zbr8Gy0IS8eqbob-9" value="1: o := find(numero: String)" style="text;html=1;strokeColor=none;fillColor=none;align=center;verticalAlign=middle;whiteSpace=wrap;rounded=0;" vertex="1" parent="1">
          <mxGeometry x="297" y="199" width="230" height="30" as="geometry" />
        </mxCell>
        <mxCell id="o7QO5zbr8Gy0IS8eqbob-10" value="" style="endArrow=classic;html=1;rounded=0;" edge="1" parent="1">
          <mxGeometry width="50" height="50" relative="1" as="geometry">
            <mxPoint x="384" y="201" as="sourcePoint" />
            <mxPoint x="444" y="201" as="targetPoint" />
          </mxGeometry>
        </mxCell>
        <mxCell id="o7QO5zbr8Gy0IS8eqbob-11" value="El sistema recuerda la instancia o de Oferta Laboral" style="shape=note;whiteSpace=wrap;html=1;backgroundOutline=1;darkOpacity=0.05;fillColor=#fff2cc;strokeColor=#d6b656;" vertex="1" parent="1">
          <mxGeometry x="40" y="290" width="97" height="135" as="geometry" />
        </mxCell>
        <mxCell id="o7QO5zbr8Gy0IS8eqbob-12" value="" style="endArrow=none;dashed=1;html=1;dashPattern=1 3;strokeWidth=2;rounded=0;entryX=0;entryY=1;entryDx=0;entryDy=0;exitX=0;exitY=0;exitDx=82;exitDy=15;exitPerimeter=0;" edge="1" parent="1" source="o7QO5zbr8Gy0IS8eqbob-11" target="o7QO5zbr8Gy0IS8eqbob-7">
          <mxGeometry width="50" height="50" relative="1" as="geometry">
            <mxPoint x="230" y="410" as="sourcePoint" />
            <mxPoint x="280" y="360" as="targetPoint" />
          </mxGeometry>
        </mxCell>
      </root>
    </mxGraphModel>
  </diagram>
</mxfile>
